<svg width="114" height="148" viewBox="0 0 114 148" fill="none" xmlns="http://www.w3.org/2000/svg" style="">
<g opacity="0.2">
<g clipPath="url(#clip0_452_15311)">
<path d="M105 153L105 105.75C105 103.244 104.017 100.84 102.266 99.0678C100.516 97.2956 98.142 96.3 95.6667 96.3L77 96.3C74.5246 96.3 72.1507 97.2956 70.4003 99.0678C68.65 100.84 67.6667 103.244 67.6667 105.75L67.6667 153L67.6667 45.9C67.6667 36.9918 67.6667 32.5377 64.9289 29.772C62.2036 27 57.8044 27 49 27C40.1956 27 35.8027 27 33.0711 29.772C30.3333 32.5314 30.3333 36.9855 30.3333 45.9L30.3333 153L30.3333 74.25C30.3333 71.7437 29.35 69.3401 27.5997 67.5678C25.8493 65.7956 23.4754 64.8 21 64.8L2.33333 64.8C-0.14202 64.8 -2.51599 65.7956 -4.26633 67.5678C-6.01667 69.3401 -7 71.7437 -7 74.25L-7 153" stroke="url(#paint0_linear_452_15311)" strokeWidth="1.25" class="xQICYGIN_0"></path>
</g>
</g>
<defs>
<linearGradient id="paint0_linear_452_15311" x1="49" y1="27" x2="49" y2="153" gradientUnits="userSpaceOnUse">
<stop stop-color="#FFA3A3"></stop>
<stop offset="1" stop-color="#CC1010"></stop>
</linearGradient>
<clipPath id="clip0_452_15311">
<path d="M0.240234 0L113.871 0.185534L113.631 147.053L12.0004 146.887C5.37301 146.876 0.00920433 141.495 0.0200254 134.867L0.240234 0Z" fill="white" class="xQICYGIN_1"></path>
</clipPath>
</defs>
<style data-made-with="vivus-instant">.xQICYGIN_0{stroke-dasharray:630 632;stroke-dashoffset:631;animation:xQICYGIN_draw_0 4700ms linear 0ms infinite,xQICYGIN_fade 4700ms linear 0ms infinite;}.xQICYGIN_1{stroke-dasharray:516 518;stroke-dashoffset:517;animation:xQICYGIN_draw_1 4700ms linear 0ms infinite,xQICYGIN_fade 4700ms linear 0ms infinite;}@keyframes xQICYGIN_draw{100%{stroke-dashoffset:0;}}@keyframes xQICYGIN_fade{0%{stroke-opacity:1;}95.74468085106383%{stroke-opacity:1;}100%{stroke-opacity:0;}}@keyframes xQICYGIN_draw_0{10.638297872340425%{stroke-dashoffset: 631}53.191489361702125%{ stroke-dashoffset: 0;}100%{ stroke-dashoffset: 0;}}@keyframes xQICYGIN_draw_1{31.914893617021278%{stroke-dashoffset: 517}74.46808510638297%{ stroke-dashoffset: 0;}100%{ stroke-dashoffset: 0;}}</style></svg>
