<svg width="114" height="148" viewBox="0 0 114 148" fill="none" xmlns="http://www.w3.org/2000/svg" style="">
<g opacity="0.2">
<g clip-path="url(#clip0_1906_14397)">
<path d="M-7 139C-7 135.022 -5.41965 131.206 -2.6066 128.393C0.206444 125.58 4.02175 124 8 124C11.9782 124 15.7936 125.58 18.6066 128.393C21.4196 131.206 23 135.022 23 139C23 142.978 21.4196 146.794 18.6066 149.607C15.7936 152.42 11.9782 154 8 154C4.02175 154 0.206444 152.42 -2.6066 149.607C-5.41965 146.794 -7 142.978 -7 139ZM-7 139L-7 99M8 49C57.625 49 98 89.375 98 139M73 139C73 103.16 43.84 74 8 74M48 139C48 116.945 30.055 99 8 99" stroke="url(#paint0_linear_1906_14397)" stroke-width="1.5" class="udfubGka_0"></path>
</g>
</g>
<defs>
<linearGradient id="paint0_linear_1906_14397" x1="45.5" y1="49" x2="45.5" y2="154" gradientUnits="userSpaceOnUse">
<stop stop-color="#FFA3A3"></stop>
<stop offset="1" stop-color="#CC1010"></stop>
</linearGradient>
<clipPath id="clip0_1906_14397">
<path d="M0.240234 0L113.871 0.185534L113.631 147.053L12.0004 146.887C5.37301 146.876 0.00920433 141.495 0.0200254 134.867L0.240234 0Z" fill="white" class="udfubGka_1"></path>
</clipPath>
</defs>
<style data-made-with="vivus-instant">.udfubGka_0{stroke-dasharray:441 443;stroke-dashoffset:442;animation:udfubGka_draw_0 4300ms ease-in-out 0ms infinite,udfubGka_fade 4300ms linear 0ms infinite;}.udfubGka_1{stroke-dasharray:516 518;stroke-dashoffset:517;animation:udfubGka_draw_1 4300ms ease-in-out 0ms infinite,udfubGka_fade 4300ms linear 0ms infinite;}@keyframes udfubGka_draw{100%{stroke-dashoffset:0;}}@keyframes udfubGka_fade{0%{stroke-opacity:1;}90.69767441860465%{stroke-opacity:1;}100%{stroke-opacity:0;}}@keyframes udfubGka_draw_0{11.627906976744185%{stroke-dashoffset: 442}81.3953488372093%{ stroke-dashoffset: 0;}100%{ stroke-dashoffset: 0;}}@keyframes udfubGka_draw_1{11.627906976744185%{stroke-dashoffset: 517}81.3953488372093%{ stroke-dashoffset: 0;}100%{ stroke-dashoffset: 0;}}</style></svg>
